<svg xmlns="http://www.w3.org/2000/svg" viewBox="0 0 1600 900" role="img" aria-labelledby="title desc">
  <title id="title">Extrusion Console splash image</title>
  <desc id="desc">Splash screen for the local extrusion data upload operations console.</desc>
  <rect width="1600" height="900" fill="#F8FAFC"/>
  <g transform="translate(514 254)">
    <g transform="scale(.742)" fill="none" stroke-linecap="round" stroke-linejoin="round">
      <rect x="72" y="32" width="88" height="29" rx="5" fill="#2B2F33" stroke="#2B2F33" stroke-width="6"/>
      <path d="M58 76h116" stroke="#2B2F33" stroke-width="10"/>
      <path d="M86 91h61l-15 20v13h-25v-13Z" fill="#2B2F33" stroke="#2B2F33" stroke-width="6"/>
      <path d="M72 169v35c0 11 23 20 52 20s52-9 52-20v-35" fill="#FFFFFF" stroke="#2B2F33" stroke-width="7"/>
      <ellipse cx="124" cy="169" rx="52" ry="17" fill="#FFFFFF" stroke="#2B2F33" stroke-width="7"/>
      <path d="M72 176c0 10 23 18 52 18s52-8 52-18" stroke="#2B2F33" stroke-width="7"/>
      <path d="M72 198c0 10 23 18 52 18s52-8 52-18" stroke="#2B2F33" stroke-width="7"/>
      <circle cx="154" cy="181" r="5" fill="#00A79D"/>
      <circle cx="154" cy="207" r="5" fill="#00A79D"/>
      <circle cx="108" cy="114" r="5" fill="#1E6FB8"/>
      <circle cx="130" cy="116" r="5" fill="#00A79D"/>
      <circle cx="96" cy="135" r="5" fill="#1E6FB8"/>
      <circle cx="118" cy="134" r="5" fill="#00A79D"/>
      <circle cx="96" cy="157" r="5" fill="#1E6FB8"/>
      <circle cx="120" cy="157" r="5" fill="#00A79D"/>
      <circle cx="194" cy="136" r="18" fill="#00A79D"/>
      <path d="M194 146v-22" stroke="#FFFFFF" stroke-width="7"/>
      <path d="m184 134 10-10 10 10" stroke="#FFFFFF" stroke-width="7"/>
      <path d="M224 98c10 13 15 29 15 46s-5 33-15 46" stroke="#F5A623" stroke-width="7"/>
      <path d="M209 112c7 9 10 20 10 32s-3 23-10 32" stroke="#F5A623" stroke-width="7"/>
    </g>
    <path d="M240 45v105" stroke="#8A929A" stroke-width="3"/>
    <text x="285" y="92" fill="#2B2F33" font-family="Inter, Arial, sans-serif" font-size="64" font-weight="750" letter-spacing="2">EXTRUSION</text>
    <text x="285" y="158" fill="#1E6FB8" font-family="Inter, Arial, sans-serif" font-size="64" font-weight="750" letter-spacing="2">CONSOLE</text>
  </g>
  <text x="800" y="560" text-anchor="middle" fill="#6B7280" font-family="Inter, Arial, sans-serif" font-size="24" font-weight="500">Local upload operations console</text>
</svg>
